<svg xmlns="http://www.w3.org/2000/svg" aria-hidden="true" style="position:absolute;width:0;height:0;overflow:hidden">
  <defs>
    <symbol id="icon-charm_menu-hamburger" viewBox="0 0 23 16">
      <path stroke-linejoin="round" stroke-linecap="round" stroke-miterlimit="4" stroke-width="2.1818" d="M0.98 14.577h21.483M0.98 7.808h21.483M0.98 1.038h21.483"></path>
    </symbol>
    <symbol id="icon-email-black-18dp-1" viewBox="0 0 12 16">
      <path d="M10 4H2c-.55 0-.995.45-.995 1L1 11c0 .55.45 1 1 1h8c.55 0 1-.45 1-1V5c0-.55-.45-1-1-1zm-.2 2.125-3.535 2.21c-.16.1-.37.1-.53 0L2.2 6.125a.425.425 0 1 1 .45-.72L6 7.5l3.35-2.095a.425.425 0 1 1 .45.72z"/>
    </symbol>
    <symbol id="icon-phone-black-18dp-1" viewBox="0 0 12 16">
      <path d="m9.818 9.243-1.225-.14a.96.96 0 0 0-.791.275l-.888.888a7.257 7.257 0 0 1-3.179-3.179l.893-.893a.96.96 0 0 0 .275-.791l-.14-1.216a.966.966 0 0 0-.96-.854h-.835c-.545 0-.999.454-.965.999a8.197 8.197 0 0 0 7.666 7.666c.545.034.999-.42.999-.965v-.835a.956.956 0 0 0-.849-.955z"/>
    </symbol>
    <symbol id="icon-person-black-18dp-1" viewBox="0 0 16 16">
      <path  d="M8 8a2.666 2.666 0 1 0 0-5.334A2.666 2.666 0 1 0 8 8zm0 1.333c-1.78 0-5.333.893-5.333 2.667v.667c0 .367.3.667.667.667h9.333c.367 0 .667-.3.667-.667V12c0-1.773-3.553-2.667-5.333-2.667z" />
    </symbol>
    <symbol id="icon-modal-close" viewBox="0 0 16 16">
      <path d="M16 1.611 14.389 0 8 6.389 1.611 0 0 1.611 6.389 8 0 14.389 1.611 16 8 9.611 14.389 16 16 14.389 9.611 8 16 1.611z"/>
    </symbol>
    <symbol id="icon-Frame-3" viewBox="0 0 16 16">
      <path  d="m16 1.333-16 7.5 5.113 1.578L13 4.25l-5.999 6.744.005.002L7 10.994v3.672l2.868-2.788 3.633 1.121 2.5-11.667z"/>
    </symbol>
    <symbol id="icon-Logo-5" viewBox="0 0 30 16">
      <path  d="M15.294 7.841a.84.84 0 0 1-.173-.569v-.825c0-.253.057-.445.172-.577s.312-.197.591-.196c.263 0 .449.056.559.168.12.143.179.317.165.494v.194h-.47v-.196a.95.95 0 0 0-.014-.192.183.183 0 0 0-.067-.114.264.264 0 0 0-.17-.044.292.292 0 0 0-.179.047.223.223 0 0 0-.078.126.933.933 0 0 0-.018.204v1.001a.513.513 0 0 0 .06.281c.023.03.056.053.094.068s.08.02.121.016c.06.004.12-.012.166-.045a.204.204 0 0 0 .07-.122c.011-.066.016-.134.015-.201v-.203h.47v.186a.759.759 0 0 1-.162.519c-.108.123-.292.184-.562.184s-.475-.065-.59-.201zm1.956.008c-.119-.128-.178-.316-.178-.563v-.868c0-.245.059-.431.178-.557s.317-.189.595-.188c.276 0 .474.063.592.188s.179.311.179.557v.868c0 .245-.06.433-.181.562s-.317.194-.59.194-.476-.065-.595-.193zm.815-.208a.474.474 0 0 0 .056-.257V6.321a.484.484 0 0 0-.055-.252c-.024-.03-.057-.054-.096-.069s-.082-.02-.124-.015c-.042-.005-.085 0-.124.015s-.072.039-.097.069a.457.457 0 0 0-.056.252v1.068a.474.474 0 0 0 .056.257.292.292 0 0 0 .099.064.33.33 0 0 0 .242 0 .292.292 0 0 0 .099-.064v-.005zm1.117-1.942h.506l.38 1.601.389-1.601h.492l.05 2.312h-.364l-.039-1.607-.376 1.607h-.292l-.389-1.612-.036 1.612h-.368l.046-2.312zm2.385 0h.788c.454 0 .681.219.681.656 0 .419-.239.628-.717.628h-.268V8.01h-.486l.003-2.312zm.673.988c.048.005.097.001.143-.011s.089-.034.124-.062a.375.375 0 0 0 .07-.261.71.71 0 0 0-.023-.21c-.007-.023-.019-.045-.036-.063s-.038-.035-.061-.047a.5.5 0 0 0-.217-.037h-.189v.691h.189zm1.497-.988h.522l.536 2.312h-.453l-.106-.533h-.466l-.109.533h-.46l.536-2.312zm.446 1.511-.182-.97-.182.97h.364zm1.045-1.511h.34l.652 1.319V5.699h.404v2.312H26.3l-.656-1.377v1.377h-.417l.001-2.312zm2.341 1.43-.542-1.427h.456l.331.917.31-.917h.446l-.535 1.427v.881h-.467v-.881zM16.045 9.021v.121h-.397v.939h-.166v-.939h-.399v-.121h.962zm1.244 1.06h-.128a.056.056 0 0 1-.036-.01.053.053 0 0 1-.021-.024l-.115-.252h-.551l-.115.252a.072.072 0 0 1-.017.029.056.056 0 0 1-.036.01h-.128l.486-1.06h.169l.492 1.056zm-.805-.393h.459l-.195-.431a.919.919 0 0 1-.036-.1l-.018.056-.017.044-.193.431zm1.644.289h.091a.529.529 0 0 0 .078-.013.556.556 0 0 0 .07-.019l.065-.026v-.238h-.195c-.005 0-.01 0-.014-.002s-.009-.004-.012-.007a.016.016 0 0 1-.007-.009l-.002-.011v-.081h.377v.406a.683.683 0 0 1-.205.086.972.972 0 0 1-.264.029.748.748 0 0 1-.245-.039.596.596 0 0 1-.195-.111.496.496 0 0 1-.17-.388.496.496 0 0 1 .169-.39.574.574 0 0 1 .195-.11.818.818 0 0 1 .261-.039.752.752 0 0 1 .251.036c.034.011.067.025.097.042s.058.035.085.055l-.047.065c-.004.006-.009.011-.016.015s-.014.005-.022.006a.061.061 0 0 1-.03-.008.764.764 0 0 1-.048-.025.476.476 0 0 0-.155-.053.732.732 0 0 0-.312.02.366.366 0 0 0-.233.216.5.5 0 0 0 0 .353.421.421 0 0 0 .239.217.567.567 0 0 0 .193.021zm1.55-.017h.531v.121h-.694v-1.06h.166l-.004.939zm1.084.121h-.166v-1.06h.166v1.06zm.619-1.055a.07.07 0 0 1 .025.019l.711.799v-.827h.145v1.064h-.084a.074.074 0 0 1-.036-.006.086.086 0 0 1-.026-.02l-.71-.798v.825h-.139v-1.06h.087a.08.08 0 0 1 .027.005zm2.106-.005v.117h-.589v.35h.478V9.6h-.478v.362h.589v.117h-.761V9.021h.761zM6.056 2.474l7.386 1.81v6.342L6.056 8.817V2.475zm-.474-.541v7.191l8.333 2.042v-7.19L5.582 1.933z"/>
      <path  d="m10.048 14.505-8.334-2.044v-7.19l8.334 2.043v7.191zM5.72 2.392l7.29 1.787-3.1 2.676-7.291-1.788L5.72 2.392zm-.138-.459L1.714 5.27l8.334 2.043 3.867-3.337-8.333-2.043zM10.517 14.1l3.398-2.933-3.398-.833V14.1z"/>
    </symbol>
    <symbol id="icon-Logo-4" viewBox="0 0 30 16">
      <path  d="M7.655 12.678c.07.078.107.176.106.276.004.066-.009.131-.038.191s-.071.114-.126.158a.765.765 0 0 1-.475.128h-.836v-1.752h.819a.754.754 0 0 1 .454.116c.053.04.095.09.122.147s.04.119.036.181a.378.378 0 0 1-.095.268.452.452 0 0 1-.249.137.482.482 0 0 1 .282.15zm-.98-.264h.35a.355.355 0 0 0 .222-.058c.026-.021.047-.048.06-.078s.018-.062.015-.093c.002-.032-.003-.064-.016-.093s-.033-.056-.058-.078a.365.365 0 0 0-.229-.059h-.344v.46zm.606.671c.028-.022.05-.049.065-.08s.021-.064.018-.098c.002-.034-.004-.068-.019-.099s-.037-.059-.066-.081a.387.387 0 0 0-.238-.063h-.367v.482h.372a.4.4 0 0 0 .235-.061zm2.047.346-.455-.685h-.171v.685H8.31v-1.752h.742a.785.785 0 0 1 .516.149c.104.095.166.22.176.353s-.033.265-.121.372a.625.625 0 0 1-.354.178l.485.7h-.426zm-.626-.923h.32c.222 0 .334-.088.334-.265a.242.242 0 0 0-.082-.197.372.372 0 0 0-.252-.071h-.324l.004.533zm2.767.571h-.781l-.138.353h-.411l.717-1.732h.444l.714 1.732h-.411l-.135-.353zm-.104-.266-.285-.74-.285.74h.57zm2.785.618h-.389l-.872-1.191v1.191h-.388v-1.752h.388l.872 1.198v-1.198h.389v1.752zm2.219-.419a.805.805 0 0 1-.352.309 1.243 1.243 0 0 1-.547.11h-.692v-1.752h.692c.189-.004.377.033.547.108a.798.798 0 0 1 .352.306.937.937 0 0 1 0 .92zm-.445-.042c.111-.116.172-.265.172-.418s-.061-.302-.172-.418a.727.727 0 0 0-.487-.149h-.27v1.134h.27a.721.721 0 0 0 .487-.149zM11.713 1.933s5.019 1.706 4.913 4.174v4.175s-5.015-1.707-4.911-4.175l-.002-4.174zm9.384 7.373a7.367 7.367 0 0 1 3.189-1.058V6.941c-1.319.458-2.438 1.287-3.189 2.365z"/>
      <path  d="M20.527 9.699c.776-1.406 2.121-2.492 3.758-3.033V2.9s-7.148 2.43-6.997 5.945v5.945s.319-.109.82-.312c0-.19 0-.382.023-.574.148-1.632 1.01-3.144 2.396-4.204z"/>
      <path  d="M19.848 11.908a5.6 5.6 0 0 1 .25-1.217c-.863.915-1.386 2.051-1.495 3.248-.01.113-.016.226-.019.342a21.66 21.66 0 0 0 1.375-.652 5.535 5.535 0 0 1-.111-1.721zm.284.021a5.301 5.301 0 0 0 .088 1.559c1.953-1.052 4.147-2.677 4.063-4.642v-.171c-1.395.141-2.701.69-3.716 1.563a5.361 5.361 0 0 0-.435 1.691z"/>
    </symbol>
    <symbol id="icon-Logo-3" viewBox="0 0 29 16">
      <path  d="M6.642 5.936h-.001c-.658 0-1.192.481-1.192 1.074v.001c0 .593.534 1.074 1.192 1.074h.001c.658 0 1.192-.481 1.192-1.074V7.01c0-.593-.534-1.074-1.192-1.074zm8.796-.343c-.002-.824-.366-1.614-1.012-2.197s-1.522-.911-2.436-.913c-.914.002-1.791.33-2.437.912S8.542 4.768 8.54 5.592v4.545s6.898-.693 6.898-4.544v-.001zM3.034 11.629c.002.573.255 1.123.705 1.529s1.059.634 1.695.636c.636-.002 1.245-.23 1.695-.636s.703-.955.705-1.528V8.468s-4.799.482-4.799 3.162zm2.4.566c-.124 0-.246-.033-.349-.095s-.184-.151-.231-.254-.06-.217-.036-.327c.024-.11.084-.211.172-.29s.2-.133.322-.155c.122-.022.248-.011.363.032s.213.116.282.209a.529.529 0 0 1-.077.717c-.058.053-.128.095-.204.123s-.158.043-.241.043v-.002zm4.389-1.018v1.177h-.242v-1.177h.242zm.469.502v.189h-.535v-.189h.535zm.056-.502v.19h-.592v-.19h.592zm1.108.56v.056c0 .089-.012.17-.036.241s-.058.132-.103.182c-.044.05-.097.088-.158.114s-.129.04-.203.04c-.074 0-.141-.013-.203-.04s-.114-.064-.158-.114c-.045-.05-.079-.111-.104-.182s-.036-.151-.036-.241v-.056c0-.09.012-.17.036-.241s.058-.132.103-.182a.47.47 0 0 1 .361-.155c.074 0 .142.013.203.04s.114.065.158.115c.045.05.079.111.103.182s.037.151.037.241zm-.245.056v-.057c0-.063-.006-.117-.017-.165s-.028-.087-.05-.12-.049-.057-.081-.073c-.032-.017-.068-.025-.109-.025s-.077.008-.109.025c-.031.016-.058.04-.08.073s-.038.072-.049.12a.728.728 0 0 0-.017.165v.057c0 .062.006.117.017.165s.028.088.05.12c.022.032.049.057.081.074s.068.025.109.025a.217.217 0 0 0 .189-.099c.022-.033.038-.073.049-.12s.017-.103.017-.165zm1.032.252c0-.021-.003-.04-.01-.057s-.017-.033-.034-.047c-.017-.015-.04-.029-.07-.043s-.069-.029-.117-.044c-.053-.017-.104-.037-.152-.058s-.089-.047-.126-.075c-.036-.029-.065-.063-.086-.101s-.031-.083-.031-.133a.281.281 0 0 1 .123-.236c.039-.029.085-.051.137-.067s.112-.023.175-.023c.087 0 .162.016.227.047s.115.074.15.129a.33.33 0 0 1 .054.187h-.241c0-.034-.007-.065-.022-.091s-.036-.047-.065-.062a.233.233 0 0 0-.108-.023c-.042 0-.077.006-.105.019s-.049.029-.063.051a.126.126 0 0 0-.021.071c0 .02.005.038.015.054s.025.031.045.045.044.027.074.04c.029.012.063.024.101.036.064.019.12.041.169.065s.09.051.123.082c.033.03.058.064.074.103a.338.338 0 0 1-.005.267.293.293 0 0 1-.086.103c-.038.028-.083.049-.135.064s-.111.022-.175.022c-.058 0-.116-.008-.172-.023s-.108-.039-.154-.07a.34.34 0 0 1-.151-.292h.243c0 .037.006.068.017.093s.027.046.048.061c.021.016.046.027.074.034s.061.011.095.011c.042 0 .076-.006.103-.018s.048-.028.061-.049a.133.133 0 0 0 .02-.071zm.933-.868v1.177h-.242v-1.177h.242zm.362 0v.19h-.96v-.19h.96zm.928.987v.189h-.626v-.189h.626zm-.547-.987v1.177h-.242v-1.177h.242zm.466.479v.184h-.545v-.184h.545zm.08-.479v.19h-.626v-.19h.626zm.143 0h.439c.09 0 .167.013.232.04s.115.067.15.12.053.118.053.195c0 .063-.011.117-.032.162s-.051.082-.09.112a.455.455 0 0 1-.135.071l-.077.04h-.381l-.002-.189h.284c.043 0 .078-.008.106-.023s.049-.036.063-.063a.19.19 0 0 0 .022-.094c0-.038-.007-.07-.021-.098s-.035-.049-.064-.063-.064-.022-.107-.022h-.196v.987h-.242v-1.177zm.657 1.176-.268-.524.256-.002.272.515v.011h-.259zm1.273-.419h-.3v-.189h.3c.046 0 .084-.008.113-.023s.05-.037.064-.065a.245.245 0 0 0 0-.191c-.013-.03-.035-.054-.064-.073s-.067-.027-.113-.027h-.216v.987h-.242v-1.177h.458c.092 0 .171.017.237.05a.356.356 0 0 1 .205.337c0 .076-.018.142-.053.197s-.086.098-.152.129a.57.57 0 0 1-.237.045zm1.399.23v.189h-.626v-.189h.626zm-.548-.987v1.177h-.242v-1.177h.242zm.466.479v.184h-.545v-.184h.545zm.081-.479v.19h-.626v-.19h.626zm.684 0v1.177h-.242v-1.177h.242zm.362 0v.19h-.96v-.19h.96zm.928.987v.189h-.626v-.189h.626zm-.547-.987v1.177h-.242v-1.177h.242zm.466.479v.184h-.545v-.184h.545zm.08-.479v.19h-.626v-.19h.626zm.143 0h.439c.09 0 .167.013.232.04s.115.067.15.12a.346.346 0 0 1 .053.195c0 .063-.011.117-.032.162s-.051.082-.09.112a.455.455 0 0 1-.135.071l-.077.04h-.381l-.002-.189h.284c.043 0 .078-.008.106-.023s.049-.036.063-.063a.19.19 0 0 0 .022-.094c0-.038-.007-.07-.021-.098s-.035-.049-.064-.063a.23.23 0 0 0-.108-.022h-.196v.987h-.242v-1.177zm.657 1.176-.268-.524.256-.002.272.515v.011h-.259zm1.016-.308c0-.021-.003-.04-.01-.057s-.017-.033-.034-.047c-.017-.015-.04-.029-.07-.043s-.069-.029-.117-.044c-.053-.017-.104-.037-.152-.058s-.089-.047-.126-.075c-.036-.029-.065-.063-.086-.101s-.031-.083-.031-.133a.281.281 0 0 1 .123-.236c.039-.029.085-.051.137-.067s.112-.023.175-.023c.087 0 .162.016.227.047s.115.074.15.129a.33.33 0 0 1 .054.187h-.241c0-.034-.007-.065-.022-.091s-.036-.047-.065-.062a.233.233 0 0 0-.108-.023c-.042 0-.077.006-.105.019s-.049.029-.063.051a.126.126 0 0 0-.021.071c0 .02.005.038.015.054s.025.031.045.045.044.027.074.04c.029.012.063.024.101.036.064.019.12.041.169.065s.09.051.123.082c.033.03.058.064.074.103a.338.338 0 0 1-.005.267.293.293 0 0 1-.086.103c-.038.028-.083.049-.135.064s-.111.022-.175.022c-.058 0-.116-.008-.172-.023s-.108-.039-.154-.07a.34.34 0 0 1-.151-.292h.243c0 .037.006.068.017.093s.027.046.048.061c.021.016.046.027.074.034s.061.011.095.011c.042 0 .076-.006.103-.018s.048-.028.061-.049a.133.133 0 0 0 .02-.071z"/>
    </symbol>
    <symbol id="icon-Logo-2" viewBox="0 0 30 16">
      <path  d="M10.517 14.064c.005 0 .009.001.013.003l.011.007.063.059a.531.531 0 0 1-.177.113.69.69 0 0 1-.252.04.677.677 0 0 1-.237-.038.48.48 0 0 1-.293-.27.531.531 0 0 1-.04-.211.495.495 0 0 1 .165-.376.55.55 0 0 1 .189-.107.742.742 0 0 1 .244-.038.663.663 0 0 1 .226.034c.062.023.12.055.17.095l-.053.063-.013.011c-.006.004-.014.005-.021.005s-.016-.003-.023-.007l-.028-.017-.039-.022a.487.487 0 0 0-.219-.045.514.514 0 0 0-.175.028.367.367 0 0 0-.226.207.42.42 0 0 0-.032.167.435.435 0 0 0 .032.17.37.37 0 0 0 .219.204.492.492 0 0 0 .162.027.772.772 0 0 0 .096-.005.383.383 0 0 0 .208-.087.052.052 0 0 1 .03-.011zm1.822-.298a.497.497 0 0 1-.162.373.545.545 0 0 1-.186.107.784.784 0 0 1-.479 0c-.07-.024-.133-.061-.185-.107s-.093-.103-.12-.164a.503.503 0 0 1 .12-.585.558.558 0 0 1 .185-.103.769.769 0 0 1 .479 0c.07.024.133.061.186.107s.092.102.119.162a.514.514 0 0 1 .043.211zm-.166 0a.442.442 0 0 0-.03-.168.349.349 0 0 0-.217-.206.563.563 0 0 0-.349 0 .373.373 0 0 0-.133.08.32.32 0 0 0-.085.126.488.488 0 0 0 0 .337.343.343 0 0 0 .218.205.577.577 0 0 0 .349 0 .344.344 0 0 0 .217-.205.442.442 0 0 0 .03-.168zm1.409.176.017.038.018-.038a.347.347 0 0 1 .021-.037l.403-.626c.008-.011.015-.018.023-.02a.093.093 0 0 1 .033-.003h.119v1.018h-.141v-.816l-.405.635c-.005.01-.013.018-.024.023s-.022.009-.035.009h-.023c-.012 0-.024-.003-.035-.008s-.019-.014-.024-.023l-.417-.639v.817h-.136v-1.016h.119c.011-.001.022.001.033.003a.04.04 0 0 1 .022.02l.412.627a.335.335 0 0 1 .021.036zm1.516-.05v.381h-.158v-1.017h.352a.756.756 0 0 1 .196.022.4.4 0 0 1 .139.063.27.27 0 0 1 .079.1.295.295 0 0 1 .027.13.28.28 0 0 1-.114.232.379.379 0 0 1-.14.067.674.674 0 0 1-.19.024l-.191-.003zm0-.109h.191a.497.497 0 0 0 .122-.015.243.243 0 0 0 .088-.044.19.19 0 0 0 .073-.153c.002-.028-.004-.057-.016-.083s-.031-.05-.055-.069a.345.345 0 0 0-.212-.055h-.191v.419zm2.12.492h-.125c-.012 0-.025-.003-.035-.009s-.016-.014-.021-.024l-.107-.246h-.539l-.111.246a.055.055 0 0 1-.02.023.062.062 0 0 1-.035.01H16.1l.473-1.018h.164l.48 1.018zm-.78-.378h.445l-.188-.414a.648.648 0 0 1-.035-.096l-.018.053a1.312 1.312 0 0 1-.017.043l-.186.414zm1.462-.636a.072.072 0 0 1 .024.018l.69.768v-.791h.141v1.018h-.079c-.011 0-.022-.002-.032-.006s-.018-.011-.025-.019l-.689-.767v.792h-.141v-1.018h.084c.01 0 .019.001.028.005zm2.017.609v.404h-.158v-.404l-.436-.613h.141a.052.052 0 0 1 .034.009.076.076 0 0 1 .021.023l.273.396.028.047.02.043.021-.044a.44.44 0 0 1 .027-.047l.269-.398a.145.145 0 0 1 .021-.022.05.05 0 0 1 .034-.01h.143l-.437.616zm-6.413-2.322.208.019c1.064-.407 1.964-1.072 2.588-1.914s.943-1.821.919-2.817l-1.173-1.002c.238 1.06.127 2.156-.322 3.165s-1.218 1.892-2.221 2.549z"/>
      <path  d="m13.085 11.501.032.005c1.071-.655 1.888-1.569 2.345-2.625s.532-2.204.217-3.297l-1.67-1.427c.676 1.173.948 2.486.784 3.786s-.755 2.534-1.707 3.557zm5.665-3.489c-.284 1.094-.973 2.081-1.965 2.814-.29.215-.602.407-.934.573.808-.203 1.551-.562 2.171-1.049s1.101-1.089 1.406-1.76l-.677-.578z"/>
      <path  d="m18.484 7.851-.965-.824c-.018.94-.331 1.858-.905 2.659s-1.389 1.457-2.36 1.898h.005c.216 0 .433-.011.647-.033.908-.316 1.709-.82 2.334-1.466s1.052-1.413 1.245-2.234zm-5.259-4.295-1.151-.984c-1.029.34-1.913.937-2.538 1.713s-.961 1.696-.964 2.638c.004 1.041.414 2.051 1.166 2.871s1.801 1.402 2.984 1.654c1.055-1.099 1.673-2.456 1.764-3.875s-.351-2.826-1.26-4.016zm7.918 4.143c-.004-1.235-.58-2.419-1.603-3.292s-2.408-1.366-3.853-1.369a6.214 6.214 0 0 0-1.954.311l7.045 6.019a4.019 4.019 0 0 0 .364-1.668z"/>
    </symbol>
    <symbol id="icon-Logo-1" viewBox="0 0 30 16">
      <path  d="M14.318 1.696h-.039c-.06-.004-.12-.005-.18-.007h-.13a6.64 6.64 0 0 0-.37.009 8.09 8.09 0 0 0-3.005.766l-.124.06V8.85l.289-.098c.254-.087.524-.166.804-.238a9.815 9.815 0 0 1 2.313-.307v.831a7.544 7.544 0 0 0-.304.009h-.024a9.209 9.209 0 0 0-1.779.273 9.03 9.03 0 0 0-2.12.826V2.033a8.525 8.525 0 0 1 2.224-.905 8.474 8.474 0 0 1 2.096-.27h.122c.146.004.288.01.422.02.352.025.702.08 1.044.166v.818a6.407 6.407 0 0 0-1.012-.153l-.021-.002c-.071-.006-.141-.012-.207-.012zm1.44.836c.181.014.369.02.559.02a9.006 9.006 0 0 0 2.204-.283 9.07 9.07 0 0 0 2.119-.827v7.969a8.546 8.546 0 0 1-2.225.905 8.57 8.57 0 0 1-2.096.27 6.45 6.45 0 0 1-1.59-.187v-8.02a6.97 6.97 0 0 0 1.029.154zm4.055.062-.289.097c-.266.089-.534.169-.804.24a9.784 9.784 0 0 1-2.402.308c-.189 0-.362-.005-.53-.016l-.231-.015v6.508l.198.017c.184.016.373.024.564.024a7.702 7.702 0 0 0 1.892-.245 7.992 7.992 0 0 0 1.478-.531l.124-.06V2.593zm-9.602 10.324a.429.429 0 0 0-.322-.13.473.473 0 0 0-.331.13.459.459 0 0 0-.126.324v1.084a.5.5 0 0 0 .043.222.379.379 0 0 0 .257.222.634.634 0 0 0 .162.023c.06.001.12-.012.175-.038a.482.482 0 0 0 .145-.1c.04-.042.072-.091.095-.145s.035-.113.035-.173v-.121h-.283v.097a.248.248 0 0 1-.017.097.169.169 0 0 1-.041.061.197.197 0 0 1-.118.041.144.144 0 0 1-.133-.058.257.257 0 0 1-.038-.145v-1.011a.336.336 0 0 1 .035-.162.143.143 0 0 1 .139-.066.156.156 0 0 1 .127.061.231.231 0 0 1 .047.145v.094h.28v-.11a.496.496 0 0 0-.13-.343zm1.683-.013a.486.486 0 0 0-.641.001.45.45 0 0 0-.11.152.49.49 0 0 0-.041.21v1.04a.503.503 0 0 0 .041.213.423.423 0 0 0 .11.145c.043.04.094.071.15.092.054.02.111.03.169.031s.115-.01.169-.031c.056-.021.108-.052.153-.092s.082-.09.107-.145a.503.503 0 0 0 .041-.213v-1.04a.476.476 0 0 0-.148-.362zm-.132 1.402a.19.19 0 0 1-.056.151.204.204 0 0 1-.266 0 .188.188 0 0 1-.056-.151v-1.04a.19.19 0 0 1 .056-.151.204.204 0 0 1 .266 0 .188.188 0 0 1 .056.151v1.04zm2.343.464v-1.968h-.272l-.358 1.042h-.005l-.361-1.042h-.27v1.968h.281v-1.197h.005l.275.846h.14l.278-.846h.005v1.197h.281zm1.597-1.83a.386.386 0 0 0-.159-.108.643.643 0 0 0-.204-.031h-.418v1.968h.28v-.769h.145a.514.514 0 0 0 .253-.054.403.403 0 0 0 .154-.15.48.48 0 0 0 .064-.171c.011-.074.016-.149.015-.224a1.103 1.103 0 0 0-.027-.281.426.426 0 0 0-.103-.181zm-.144.6a.237.237 0 0 1-.026.102.16.16 0 0 1-.072.069.288.288 0 0 1-.132.025H15.2v-.669h.145a.259.259 0 0 1 .126.025.161.161 0 0 1 .066.073.299.299 0 0 1 .025.11v.131c0 .046.003.093 0 .135h-.003zm1.473-.738h-.23l-.434 1.968h.28l.082-.423h.382l.082.423h.28l-.445-1.968zm-.259 1.277.138-.713h.005l.137.713h-.28zm2.071-.091h-.005l-.424-1.186h-.27v1.968h.28v-1.184h.006l.429 1.184h.264v-1.968h-.28v1.186zm1.713-1.186-.226.782h-.006l-.226-.782h-.297l.385 1.136v.832h.28v-.832l.385-1.136h-.297zM9.429 15.327h.135v.379h.092v-.379h.134v-.078h-.361v.078zm1.136-.078-.177.457h.098l.038-.104h.182l.039.104h.1l-.181-.457h-.098zm-.015.276.062-.169.062.169h-.124zm1.138.013h.106v.059a.179.179 0 0 1-.108.039.113.113 0 0 1-.097-.044.195.195 0 0 1-.034-.119c0-.102.044-.153.132-.153.023-.002.046.004.065.017s.033.033.038.056l.09-.017c-.02-.089-.084-.134-.194-.134a.226.226 0 0 0-.16.059c-.023.023-.041.05-.052.081s-.016.063-.014.095a.242.242 0 0 0 .059.171.216.216 0 0 0 .173.067.273.273 0 0 0 .194-.073v-.18h-.198v.077zm1.147-.289h-.093v.457h.32v-.078h-.228v-.379zm.97 0h-.093v.457h.093v-.457zm.948.305-.187-.305h-.09v.457h.086v-.299l.184.299h.092v-.457h-.085v.305zm.858-.049h.228v-.078h-.228v-.1h.245v-.078h-.338v.457h.347v-.078h-.254v-.124zm2.078-.076h-.18v-.18h-.092v.457h.092v-.2h.18v.2h.092v-.457h-.092v.18zm.862.076h.228v-.078h-.228v-.1h.246v-.078h-.338v.457h.346v-.078h-.254v-.124zm1.17 0c.079-.012.12-.054.12-.127a.113.113 0 0 0-.045-.102.259.259 0 0 0-.134-.027h-.194v.457h.092v-.191h.018a.123.123 0 0 1 .057.01c.013.008.025.02.033.033l.1.145h.11l-.056-.089a.323.323 0 0 0-.101-.11zm-.093-.063h-.068v-.115h.072a.227.227 0 0 1 .093.011c.007.006.012.013.015.021s.005.017.005.026a.06.06 0 0 1-.024.046.267.267 0 0 1-.093.011zm.975.063h.228v-.078h-.228v-.1h.246v-.078h-.338v.457h.347v-.078h-.254v-.124z"/>
    </symbol>
    <symbol id="icon-Logo" viewBox="0 0 30 16">
      <path  d="m10.857 2 2.002 1.908-3.717-.002v9.255h9.714V9.622l2 1.905V2h-10zm7.912 7.398-5.677-5.409h5.677v5.409zm-1.762 2.408H10.68V5.582h.447v5.803h5.879v.421zm-5.065 3.069-.236-.485h-.195l.342.642v.374h.176v-.374l.342-.642h-.194l-.236.485zm.869-.485h.042l.384 1.016h-.184l-.082-.238h-.393l-.082.238h-.183l.382-1.016h.117zm-.186.639h.297l-.149-.431-.149.431zm1.227-.169a.548.548 0 0 1-.083-.128.27.27 0 0 1 .011-.237.226.226 0 0 1 .093-.088.298.298 0 0 1 .14-.031c.052 0 .096.01.133.031s.066.048.086.082a.23.23 0 0 1-.034.273.432.432 0 0 1-.071.062l-.071.051.201.237a.416.416 0 0 0 .044-.19h.145a.633.633 0 0 1-.015.14.464.464 0 0 1-.074.168l.149.176h-.195l-.059-.069a.422.422 0 0 1-.262.084c-.067 0-.126-.012-.175-.037s-.087-.059-.114-.102a.275.275 0 0 1-.014-.258.357.357 0 0 1 .07-.088.966.966 0 0 1 .094-.075zm.083.103-.021.015a.243.243 0 0 0-.055.058.18.18 0 0 0-.029.09.151.151 0 0 0 .076.139.185.185 0 0 0 .091.021.259.259 0 0 0 .164-.058l-.226-.266zm.041-.186.062-.042c.029-.02.05-.039.063-.057s.019-.043.019-.071c0-.024-.009-.046-.028-.067s-.045-.031-.079-.031a.104.104 0 0 0-.097.06.142.142 0 0 0 .004.124.394.394 0 0 0 .044.069l.012.015zm1.776.298h-.174c-.005.044-.016.082-.032.112s-.039.053-.07.069a.263.263 0 0 1-.121.024c-.041 0-.076-.008-.105-.024s-.053-.039-.073-.069c-.019-.03-.033-.065-.042-.107s-.013-.088-.013-.14v-.086c0-.054.005-.102.015-.144s.025-.078.045-.107c.02-.029.045-.051.075-.066s.065-.022.105-.022c.049 0 .088.008.119.025s.053.04.068.071a.328.328 0 0 1 .031.112h.174c-.007-.068-.026-.128-.057-.181s-.074-.094-.13-.123a.428.428 0 0 0-.205-.045c-.064 0-.121.011-.172.033s-.094.055-.13.097c-.036.042-.064.092-.084.151s-.029.125-.029.198v.084c0 .073.009.139.028.198s.047.11.082.151a.382.382 0 0 0 .299.129c.082 0 .151-.015.209-.045s.102-.07.133-.122a.401.401 0 0 0 .056-.178zm.969-.149v-.056c0-.077-.01-.145-.031-.206s-.049-.113-.086-.156c-.037-.043-.082-.076-.133-.098s-.109-.034-.172-.034c-.062 0-.119.011-.171.034s-.096.055-.133.098c-.037.043-.066.095-.087.156s-.031.129-.031.206v.056c0 .077.01.146.031.206s.05.113.088.156c.038.043.082.076.133.098s.109.033.171.033c.063 0 .12-.011.172-.033s.096-.056.133-.098c.037-.043.066-.095.086-.156s.03-.13.03-.206zm-.175-.058v.057c0 .057-.006.107-.017.151s-.026.081-.047.111-.046.052-.077.068-.065.022-.104.022c-.039 0-.073-.007-.103-.022s-.056-.038-.078-.068c-.021-.03-.038-.067-.049-.111s-.017-.094-.017-.151v-.057c0-.057.006-.107.017-.15s.027-.08.048-.11.047-.052.077-.067.065-.023.103-.023.073.008.104.023.056.037.077.067.037.066.048.11a.607.607 0 0 1 .017.15z"/>
    </symbol>
    <symbol id="icon-linkedin-1" viewBox="0 0 16 16">
      <path  d="M15.996 16v-.001H16v-5.868c0-2.871-.618-5.082-3.974-5.082-1.613 0-2.696.885-3.138 1.725h-.047V5.317H5.659v10.682h3.313V10.71c0-1.393.264-2.739 1.989-2.739 1.699 0 1.725 1.589 1.725 2.829v5.201h3.31zM.264 5.318h3.317V16H.264V5.318zM1.921 0C.86 0 0 .861 0 1.921S.861 3.86 1.921 3.86c1.061 0 1.921-.879 1.921-1.939S2.981 0 1.921 0z"/>
    </symbol>
    <symbol id="icon-facebook-1" viewBox="0 0 11 11">
      <path  d="M7.11 1.771h.974V.075A12.618 12.618 0 0 0 6.665 0C5.261 0 4.299.883 4.299 2.506V4H2.75v1.896h1.549v4.771h1.9v-4.77h1.487l.236-1.896H6.199V2.695c0-.548.148-.923.912-.923z"/>
    </symbol>
    <symbol id="icon-twitter-1" viewBox="0 0 16 16">
      <path  d="M16 3.039a6.839 6.839 0 0 1-1.89.518 3.262 3.262 0 0 0 1.443-1.813 6.555 6.555 0 0 1-2.08.794 3.28 3.28 0 0 0-5.674 2.243c0 .26.022.51.076.748a9.284 9.284 0 0 1-6.761-3.431 3.285 3.285 0 0 0 1.008 4.384A3.24 3.24 0 0 1 .64 6.078v.036a3.295 3.295 0 0 0 2.628 3.223 3.274 3.274 0 0 1-.86.108 2.9 2.9 0 0 1-.621-.056 3.311 3.311 0 0 0 3.065 2.285 6.59 6.59 0 0 1-4.067 1.399c-.269 0-.527-.012-.785-.045A9.234 9.234 0 0 0 5.032 14.5c6.036 0 9.336-5 9.336-9.334 0-.145-.005-.285-.012-.424A6.544 6.544 0 0 0 16 3.039z"/>
    </symbol>
    <symbol id="icon-instagram-2" viewBox="0 0 16 16">
      <path  d="M15.984 4.704c-.037-.85-.175-1.435-.372-1.941a3.904 3.904 0 0 0-.925-1.419 3.944 3.944 0 0 0-1.416-.922C12.762.225 12.18.088 11.33.05 10.473.009 10.202 0 8.029 0S5.585.009 4.731.047c-.85.037-1.435.175-1.941.372a3.904 3.904 0 0 0-1.419.925c-.406.4-.722.885-.922 1.416-.197.51-.334 1.091-.372 1.941-.041.856-.05 1.128-.05 3.301s.009 2.444.047 3.298c.037.85.175 1.435.372 1.941.203.538.519 1.019.925 1.419.4.406.885.722 1.416.922.51.197 1.091.335 1.941.372.853.038 1.125.047 3.298.047s2.444-.009 3.298-.047c.85-.037 1.435-.175 1.941-.372a4.095 4.095 0 0 0 2.341-2.341c.197-.509.334-1.091.372-1.941.038-.853.047-1.125.047-3.298s-.003-2.444-.041-3.298zm-1.441 6.532c-.034.781-.166 1.203-.275 1.485a2.655 2.655 0 0 1-1.519 1.519c-.281.109-.706.241-1.485.275-.844.038-1.097.047-3.232.047s-2.391-.009-3.232-.047c-.781-.034-1.203-.166-1.485-.275a2.453 2.453 0 0 1-.919-.597 2.477 2.477 0 0 1-.597-.919c-.109-.281-.241-.706-.275-1.485-.038-.844-.047-1.097-.047-3.232s.009-2.391.047-3.232c.034-.781.166-1.203.275-1.485.128-.347.331-.663.6-.919.259-.266.572-.469.919-.597.281-.109.706-.241 1.485-.275.844-.037 1.097-.047 3.232-.047 2.138 0 2.391.009 3.232.047.781.034 1.203.166 1.485.275.347.128.663.331.919.597.266.259.469.572.597.919.109.281.241.706.275 1.485.037.844.047 1.097.047 3.232s-.009 2.385-.047 3.229z"/>
      <path  d="M8.03 3.891a4.111 4.111 0 0 0 0 8.22 4.111 4.111 0 0 0 0-8.22zm0 6.777a2.667 2.667 0 1 1 .001-5.333 2.667 2.667 0 0 1-.001 5.333zm5.232-6.939a.96.96 0 1 1-1.92 0 .96.96 0 0 1 1.92 0z"/>
    </symbol>
    <symbol id="icon-astronaut-1" viewBox="0 0 16 16">
      <path d="M15.987 2.262a.266.266 0 0 0-.215-.181l-.955-.139-.427-.866c-.09-.182-.389-.182-.478 0l-.427.866-.955.139a.266.266 0 0 0-.148.454l.691.674-.163.951c-.017.1.024.201.106.261.083.06.191.068.281.02l.854-.449.854.449a.262.262 0 0 0 .281-.02.268.268 0 0 0 .106-.261l-.163-.951.691-.674a.266.266 0 0 0 .067-.273zm-1.231.663a.269.269 0 0 0-.077.236l.095.557-.5-.263a.262.262 0 0 0-.248 0l-.5.263.095-.557a.266.266 0 0 0-.077-.236l-.405-.395.559-.081a.267.267 0 0 0 .201-.146l.25-.507.25.507a.267.267 0 0 0 .201.146l.559.081-.405.395zm-1.689 7.336h-.533v.533h.533v-.533zm0 1.067h-.533v.533h.533v-.533zm.533-.534h-.533v.533h.533v-.533zm-1.067 0H12v.533h.533v-.533zm-1.333 2.4h-.533v.533h.533v-.533zm0 1.067h-.533v.533h.533v-.533zm.533-.533H11.2v.533h.533v-.533zm-1.066 0h-.533v.533h.533v-.533zM8 12.128h-.533v.533H8v-.533zm0 1.066h-.533v.533H8v-.533zm.533-.533H8v.533h.533v-.533zm-1.066 0h-.533v.533h.533v-.533zm-4.534-9.6H2.4v.533h.533v-.533zm0 1.067H2.4v.533h.533v-.533zm.534-.534h-.533v.533h.533v-.533zm-1.067 0h-.533v.533H2.4v-.533z" style="fill:var(--color1, #4d5ae5)"/>
      <path d="M12.357 7.08a.885.885 0 0 0-.594-.352.888.888 0 0 0-.67.176l-.626.48-.949.709-.679-.27a3.468 3.468 0 0 0 2.057-3.16c0-1.912-1.561-3.467-3.481-3.467S3.934 2.751 3.934 4.663c0 .693.207 1.337.56 1.879L3.112 6.53H3.11l-.012.002a.27.27 0 0 0-.078.015l-.019.007a.126.126 0 0 1-.01.003l-1.617.798h-.001l-.947.455a.89.89 0 0 0 .468 1.652.882.882 0 0 0 .42-.106l.694-.369 1.132-.585.678-.004-2.721 2.708-.001.001-.669.667c-.158.157-.245.366-.245.589s.087.432.245.589a.834.834 0 0 0 1.18 0l.657-.654.87-.65.45.449-.881.877-.001.001-.669.667c-.158.157-.245.366-.245.589s.087.432.245.589a.834.834 0 0 0 1.18 0l1.741-1.733.001-.001.505-.5-.002-.002c.003-.003.008-.004.011-.008l2.583-2.829 1.736.247a.243.243 0 0 0 .157-.028c.01-.005.02-.007.029-.014l1.607-1.067c.006-.004.009-.01.015-.015s.014-.007.02-.013l.636-.595a.89.89 0 0 0 .106-1.181zM1.065 8.885a.357.357 0 0 1-.279.026.358.358 0 0 1-.106-.63l.657-.316.225.656-.496.264zm1.749-.914-.774.4-.219-.642 1.013-.5-.02.742zm7.549-3.31c0 .459-.11.892-.299 1.28l-2.091-.95a.931.931 0 0 0-.394-.694l.732-2.43a2.939 2.939 0 0 1 2.052 2.794zm-5.894 0a2.944 2.944 0 0 1 3.32-2.907l-.716 2.377c-.01 0-.019-.003-.029-.003-.516 0-.936.419-.936.933s.42.933.936.933a.935.935 0 0 0 .809-.472l1.931.877a2.945 2.945 0 0 1-2.368 1.195 2.944 2.944 0 0 1-2.947-2.933zm2.978.4c0 .221-.181.4-.403.4s-.403-.179-.403-.4c0-.221.181-.4.403-.4s.403.179.403.4zm-6.215 7.512a.304.304 0 0 1-.427 0 .297.297 0 0 1 0-.422l.481-.479.426.424-.479.477zm1.607 1.867a.304.304 0 0 1-.427 0 .297.297 0 0 1 0-.422l.481-.479.426.424-.48.478zm1.741-1.735-.001.001-.882.88-.426-.424.882-.878.001-.001a.251.251 0 0 0 .045-.068c.003-.007.01-.013.013-.02.008-.021.01-.043.013-.064.002-.012.007-.024.007-.036 0-.018-.006-.035-.01-.053-.003-.016-.003-.032-.009-.048a.252.252 0 0 0-.046-.069c-.005-.006-.007-.013-.013-.019l-.001-.001-.804-.8c-.009-.009-.019-.012-.029-.019-.014-.011-.028-.021-.043-.029s-.031-.012-.047-.016a.23.23 0 0 0-.051-.01c-.016-.001-.031.001-.048.002-.018.002-.035.005-.052.01s-.032.014-.047.022c-.01.006-.021.007-.03.014l-.887.662-.45-.449 1.2-1.193 2.18 2.144-.464.459zm3.41-3.508c-.008-.001-.015.002-.023.001a.286.286 0 0 0-.058.003c-.015.003-.03.006-.044.011a.265.265 0 0 0-.09.054c-.006.006-.014.008-.02.015l-2.349 2.573-2.164-2.128 1.417-1.409a.267.267 0 0 0-.19-.455l-1.109.007.014-.804 1.552.013a3.475 3.475 0 0 0 3.131.989c.02.016.04.032.065.042l1.205.48.076.379.089.443-1.501-.214zm2.02.089-.157-.779.723-.54.473.628-1.04.691zm1.877-1.415-.419.393-.466-.618.416-.319a.362.362 0 0 1 .511.071.357.357 0 0 1-.043.474z" style="fill:var(--color5, #2e2f42)"/>
      <path d="M6.801 9.272 5.73 8.205a.266.266 0 0 0-.376 0L4.283 9.272a.267.267 0 0 0 0 .378l1.071 1.067a.265.265 0 0 0 .376 0L6.801 9.65a.264.264 0 0 0 0-.378zm-1.259.88-.693-.69.693-.69.694.69-.694.69zm3.04-7.617-.129.518c.035.009.869.226.869 1.074h.533c0-1.009-.833-1.483-1.273-1.592zm1.273 2.126h-.533v.533h.533v-.533z" style="fill:var(--color5, #2e2f42)"/>
    </symbol>
    <symbol id="icon-diagram-1" viewBox="0 0 16 16">
      <path d="M7.463 7.482h.533v2.399h-.533V7.482zm2.132 1.066h.533v1.333h-.533V8.548zm-4.264.8h.533v.533h-.533v-.533zm-1.6-.267h.533v.8h-.533v-.8z" style="fill:var(--color1, #4d5ae5)"/>
      <path d="M.8 14.145h12.793a.8.8 0 0 0 .8-.8v-1.066a.8.8 0 0 0-.8-.8h-.267V4.832l1.514-1.434a.805.805 0 0 0 .931-1.283.804.804 0 0 0-1.303.902l-1.141 1.081v-.615a.8.8 0 0 0-.8-.8H1.866a.8.8 0 0 0-.8.8v7.996H.799a.8.8 0 0 0-.8.8v1.066a.8.8 0 0 0 .8.8zM15.192 2.418a.267.267 0 1 1 0 .534.267.267 0 0 1 0-.534zM1.599 3.484c0-.147.119-.267.267-.267h10.661c.147 0 .267.119.267.267v1.119l-.533.507V4.017a.267.267 0 0 0-.267-.267H2.399a.267.267 0 0 0-.267.267v6.663c0 .147.119.267.267.267h9.595a.267.267 0 0 0 .267-.267V5.843l.533-.505v6.142H1.6V3.484zm2.399 3.465a.799.799 0 1 0 .554 1.374l.926.465a.266.266 0 0 0 .318-.061l1.969-2.216 1.936 1.451c.104.078.249.07.343-.02l1.683-1.594v4.066H2.665v-6.13h9.062v1.33L9.841 7.4 7.889 5.936a.267.267 0 0 0-.359.036L5.534 8.218l-.746-.373a.777.777 0 0 0 .01-.097.8.8 0 0 0-.8-.8zm.266.8a.267.267 0 1 1-.534 0 .267.267 0 0 1 .534 0zm1.6 4.264h2.665v.267a.267.267 0 0 1-.267.267H6.13a.267.267 0 0 1-.267-.267v-.267zm-5.331.267c0-.147.119-.267.267-.267h4.531v.267a.8.8 0 0 0 .8.8h2.132a.8.8 0 0 0 .8-.8v-.267h4.531c.147 0 .267.119.267.267v1.066a.267.267 0 0 1-.267.267H.801a.267.267 0 0 1-.267-.267V12.28z" style="fill:var(--color5, #2e2f42)"/>
    </symbol>
    <symbol id="icon-clock-1" viewBox="0 0 16 16">
      <path d="M15.648 7.651a7.654 7.654 0 0 0-15.305.003 7.651 7.651 0 0 0 5.325 7.288.333.333 0 0 0 .264-.033.322.322 0 0 0 .142-.178l1.932-6.125a.957.957 0 0 0-.009-1.913.942.942 0 0 0-.41.096L5.034 4.236a.319.319 0 0 0-.451.451l2.552 2.555a.939.939 0 0 0 .268 1.155l-1.841 5.836a7.022 7.022 0 1 1 5.285-.175l-.199-.937a.32.32 0 0 0-.524-.172l-1.918 1.713a.318.318 0 0 0 .116.542l2.449.782a.318.318 0 0 0 .409-.37l-.196-.92a7.627 7.627 0 0 0 4.664-7.045zm-7.652-.319a.32.32 0 1 1 0 .638.32.32 0 0 1 0-.638zm1.05 7.432 1.092-.974.301 1.42-1.393-.446z" style="fill:var(--color5, #2e2f42)"/>
      <path d="M7.677 1.593v.638a.32.32 0 0 0 .638 0v-.638a.32.32 0 0 0-.638 0zM1.938 7.332a.32.32 0 0 0 0 .638h.638a.32.32 0 0 0 0-.638h-.638zm12.116.637a.32.32 0 0 0 0-.638h-.638a.32.32 0 0 0 0 .638h.638z" style="fill:var(--color1, #4d5ae5)"/>
    </symbol>
    <symbol id="icon-antenna-1" viewBox="0 0 16 16">
      <path d="m15.387 11.049-4.222-4.253.469-2.308c.121.047.249.072.379.073h.003a1.08 1.08 0 1 0-1.005-.717l-2.48.303L4.486.081c-.05-.051-.117-.079-.188-.08s-.137.028-.187.078l-.756.752a.267.267 0 0 0 0 .377l.407.413a7.47 7.47 0 0 0 1.26 8.831.26.26 0 0 0 .073.049c-.017.09-.026.182-.026.274v3.093h-3.2a1.335 1.335 0 0 0-1.333 1.333v.533c0 .147.119.267.267.267H13.07a.267.267 0 0 0 .267-.267v-.533a1.335 1.335 0 0 0-1.333-1.333h-3.2v-1.371a7.504 7.504 0 0 0 1.524.16 7.42 7.42 0 0 0 3.52-.892l.409.411c.05.051.117.079.188.08s.137-.028.187-.078l.756-.752a.267.267 0 0 0 0-.377zM11.64 3.117a.533.533 0 1 1 .376.911h-.002a.534.534 0 0 1-.374-.911h-.001zm-.628 1.752-.299 1.473-.588-.591.887-.882zm-.303-.451-.96.954-.743-.747 1.703-.208zm1.293 9.982a.8.8 0 0 1 .8.8v.267H1.069V15.2a.8.8 0 0 1 .8-.8h10.133zm-3.733-1.067v.533H5.602v-.533h2.667zM5.602 12.8v-2.027c0-.647.598-1.173 1.333-1.173s1.333.526 1.333 1.173V12.8H5.601zm3.2-.848v-1.179c0-.941-.837-1.707-1.867-1.707a1.902 1.902 0 0 0-1.641.893 6.934 6.934 0 0 1-1.139-7.944l9.301 9.354a6.912 6.912 0 0 1-4.654.582zm5.645-.342L3.918 1.02l.377-.376 3.967 3.99c.002 0 .003.003.005.005l6.557 6.596-.378.376z" style="fill:var(--color5, #2e2f42)"/>
      <path d="M6.938 10.133h-.002a.8.8 0 1 0-.002 1.6h.002a.8.8 0 1 0 .002-1.6zm.186.989a.267.267 0 1 1-.188-.456.267.267 0 0 1 .186.456h.002z" style="fill:var(--color1, #4d5ae5)"/>
    </symbol>
  </defs>
</svg>
